<svg xmlns="http://www.w3.org/2000/svg" width="200" height="200" viewBox="0 0 200 200">
  <g id="Group_113" data-name="Group 113" transform="translate(-274.052 -1233.75)">
    <circle id="Ellipse_5" data-name="Ellipse 5" cx="96" cy="96" r="96" transform="translate(278.052 1237.75)" fill="none" stroke="#dee8ed" stroke-miterlimit="10" stroke-width="8"/>
    <path id="Path_56" data-name="Path 56" d="M416.219,1303.083h-23v-7.666a7.675,7.675,0,0,0-7.667-7.667h-23a7.675,7.675,0,0,0-7.667,7.667v7.666h-23a7.675,7.675,0,0,0-7.666,7.667v61.333a7.674,7.674,0,0,0,7.666,7.667h84.334a7.674,7.674,0,0,0,7.666-7.667V1310.75A7.675,7.675,0,0,0,416.219,1303.083Zm-57.5-7.666a3.838,3.838,0,0,1,3.833-3.834h23a3.838,3.838,0,0,1,3.833,3.834v7.666H358.719Zm61.333,47.916a5.756,5.756,0,0,1-5.75,5.75h-9.667a1.917,1.917,0,0,0,0,3.834H414.3a9.492,9.492,0,0,0,5.75-1.966v21.132a3.838,3.838,0,0,1-3.833,3.834H331.885a3.838,3.838,0,0,1-3.833-3.834v-21.132a9.492,9.492,0,0,0,5.75,1.966h9.667a1.917,1.917,0,0,0,0-3.834H333.8a5.756,5.756,0,0,1-5.75-5.75V1310.75a3.837,3.837,0,0,1,3.833-3.833h84.334a3.837,3.837,0,0,1,3.833,3.833Zm-46-28.75a26.833,26.833,0,1,0,26.833,26.834A26.864,26.864,0,0,0,374.052,1314.583Zm15.333,43.928a22.857,22.857,0,0,1-30.666,0v-3.618a3.809,3.809,0,0,1,2.41-3.558l4.8-1.919,6.773,6.772a1.915,1.915,0,0,0,2.71,0l6.773-6.772,4.8,1.919a3.81,3.81,0,0,1,2.408,3.558Zm3.781-4.321a7.609,7.609,0,0,0-4.766-6.415l-5.969-2.388a1.915,1.915,0,0,0-2.067.425l-6.312,6.311-6.311-6.311a1.917,1.917,0,0,0-2.068-.425l-5.968,2.388a7.608,7.608,0,0,0-4.767,6.415,23,23,0,1,1,38.228,0Zm-19.114-31.94a11.5,11.5,0,1,0,11.5,11.5A11.513,11.513,0,0,0,374.052,1322.25Zm0,19.167a7.667,7.667,0,1,1,7.667-7.667A7.676,7.676,0,0,1,374.052,1341.417Z" fill="#07c" stroke="#07c" stroke-miterlimit="10" stroke-width="1"/>
    <rect id="Rectangle_55" data-name="Rectangle 55" width="4" height="10" transform="translate(342 1346)" fill="#fff"/>
    <rect id="Rectangle_56" data-name="Rectangle 56" width="4" height="10" transform="translate(402 1346)" fill="#fff"/>
  </g>
</svg>
