<svg xmlns="http://www.w3.org/2000/svg" width="357.624" height="86.914" viewBox="0 0 357.624 86.914">
  <g id="Group_102" data-name="Group 102" transform="translate(-80 -47)">
    <g id="Group_101" data-name="Group 101">
      <g id="Group_98" data-name="Group 98">
        <g id="Group_97" data-name="Group 97">
          <path id="Path_74" data-name="Path 74" d="M166.9,95.776V65.463h10.461a19.784,19.784,0,0,1,5.083.566,9.689,9.689,0,0,1,3.46,1.614,6.259,6.259,0,0,1,1.98,2.537,8.525,8.525,0,0,1,.629,3.353,6.635,6.635,0,0,1-.314,2.044,5.926,5.926,0,0,1-.975,1.824,7.265,7.265,0,0,1-1.677,1.54,10.139,10.139,0,0,1-2.421,1.175q6.246,1.406,6.247,6.75a8.607,8.607,0,0,1-.734,3.564,7.856,7.856,0,0,1-2.138,2.819,10.2,10.2,0,0,1-3.459,1.855,15.091,15.091,0,0,1-4.7.672Zm5.639-17.191h4.507a7.552,7.552,0,0,0,4.361-1.048A3.792,3.792,0,0,0,182.9,74.2a3.948,3.948,0,0,0-1.341-3.374,7.01,7.01,0,0,0-4.193-1.008h-4.822Zm0,3.9v8.888h5.723A7.9,7.9,0,0,0,180.9,91a4.572,4.572,0,0,0,1.7-1.006,3.694,3.694,0,0,0,.923-1.468,5.548,5.548,0,0,0,.283-1.781,4.726,4.726,0,0,0-.315-1.772,3.333,3.333,0,0,0-.985-1.342,4.605,4.605,0,0,0-1.719-.848,9.5,9.5,0,0,0-2.537-.294Z" fill="#414242"/>
          <path id="Path_75" data-name="Path 75" d="M202.207,91.121h12.137v4.655H196.567V65.463h5.64Z" fill="#414242"/>
          <path id="Path_76" data-name="Path 76" d="M232.792,91.227a7.441,7.441,0,0,0,2.925-.546,6.087,6.087,0,0,0,2.179-1.53,6.673,6.673,0,0,0,1.363-2.39,9.821,9.821,0,0,0,.472-3.144V65.463h5.639V83.617a13.986,13.986,0,0,1-.87,5,11.3,11.3,0,0,1-2.505,3.963,11.444,11.444,0,0,1-3.962,2.6,15.187,15.187,0,0,1-10.482,0,11.1,11.1,0,0,1-6.446-6.562,13.986,13.986,0,0,1-.87-5V65.463h5.639V83.6a9.827,9.827,0,0,0,.472,3.145,6.875,6.875,0,0,0,1.352,2.4,5.936,5.936,0,0,0,2.17,1.54A7.433,7.433,0,0,0,232.792,91.227Z" fill="#414242"/>
          <path id="Path_77" data-name="Path 77" d="M272.58,65.463v4.486H259.143v8.406h10.586v4.34H259.143v8.573H272.58v4.508H253.462V65.463Z" fill="#414242"/>
          <path id="Path_78" data-name="Path 78" d="M296.06,70.976a1.569,1.569,0,0,1-.535.65,1.344,1.344,0,0,1-.724.188,1.841,1.841,0,0,1-.943-.324q-.523-.325-1.236-.724a10.211,10.211,0,0,0-1.667-.723,7,7,0,0,0-2.254-.325,6.618,6.618,0,0,0-2.044.283,4.344,4.344,0,0,0-1.467.786,3.138,3.138,0,0,0-.891,1.206,3.949,3.949,0,0,0-.293,1.54,2.685,2.685,0,0,0,.6,1.783,5.008,5.008,0,0,0,1.583,1.215,14.622,14.622,0,0,0,2.243.9q1.257.4,2.568.849a24.783,24.783,0,0,1,2.568,1.049,8.9,8.9,0,0,1,2.243,1.509,6.863,6.863,0,0,1,1.583,2.232,7.765,7.765,0,0,1,.6,3.208,10.454,10.454,0,0,1-.7,3.847,8.884,8.884,0,0,1-2.054,3.123,9.665,9.665,0,0,1-3.3,2.1,12.139,12.139,0,0,1-4.466.766,14.438,14.438,0,0,1-2.85-.283,14.961,14.961,0,0,1-2.694-.808,13.934,13.934,0,0,1-2.411-1.257,11.842,11.842,0,0,1-2-1.635l1.635-2.7a2.086,2.086,0,0,1,.556-.493,1.351,1.351,0,0,1,.723-.2,2.007,2.007,0,0,1,1.132.43q.607.429,1.436.953a11.027,11.027,0,0,0,1.949.955,7.552,7.552,0,0,0,2.694.429,5.525,5.525,0,0,0,3.732-1.143,4.1,4.1,0,0,0,1.32-3.28,3.048,3.048,0,0,0-.6-1.95,4.826,4.826,0,0,0-1.583-1.268,11.729,11.729,0,0,0-2.243-.87q-1.258-.357-2.557-.776a21.952,21.952,0,0,1-2.558-1.006,8.266,8.266,0,0,1-2.243-1.531,6.95,6.95,0,0,1-1.583-2.358,9,9,0,0,1-.6-3.49,8.343,8.343,0,0,1,2.589-6.017,9.519,9.519,0,0,1,3.113-1.949,11.311,11.311,0,0,1,4.214-.734,14.118,14.118,0,0,1,4.947.839,11.156,11.156,0,0,1,3.857,2.347Z" fill="#414242"/>
          <path id="Path_79" data-name="Path 79" d="M310.482,85.105V95.776h-5.639V65.463h9.874a17.312,17.312,0,0,1,5.262.712,10.145,10.145,0,0,1,3.668,1.991,7.807,7.807,0,0,1,2.139,3.061,11.4,11.4,0,0,1-.042,7.935,8.37,8.37,0,0,1-2.2,3.155,10.238,10.238,0,0,1-3.669,2.055,16.336,16.336,0,0,1-5.157.733Zm0-4.4h4.235a8.511,8.511,0,0,0,2.7-.388,5.017,5.017,0,0,0,1.908-1.111,4.559,4.559,0,0,0,1.132-1.761,6.731,6.731,0,0,0,.377-2.317,6.1,6.1,0,0,0-.377-2.2,4.347,4.347,0,0,0-1.132-1.677,5.016,5.016,0,0,0-1.908-1.059,8.93,8.93,0,0,0-2.7-.368h-4.235Z" fill="#414242"/>
          <path id="Path_80" data-name="Path 80" d="M339.034,83.932V95.776h-5.639V65.463h9.245a19.319,19.319,0,0,1,5.314.639,10.134,10.134,0,0,1,3.627,1.792,6.936,6.936,0,0,1,2.076,2.757,9.655,9.655,0,0,1,.209,6.425,8.384,8.384,0,0,1-1.3,2.474,8.74,8.74,0,0,1-2.1,1.949,10.99,10.99,0,0,1-2.841,1.342,5.588,5.588,0,0,1,1.845,1.74l7.589,11.195H351.99a2.475,2.475,0,0,1-1.248-.294,2.552,2.552,0,0,1-.87-.838L343.5,84.938a2.254,2.254,0,0,0-.786-.777,2.771,2.771,0,0,0-1.269-.229Zm0-4.047h3.522a8.72,8.72,0,0,0,2.778-.4,5.378,5.378,0,0,0,1.95-1.1,4.424,4.424,0,0,0,1.142-1.667A5.777,5.777,0,0,0,348.8,74.6a4.308,4.308,0,0,0-1.519-3.543,7.277,7.277,0,0,0-4.644-1.237h-3.606Z" fill="#414242"/>
          <path id="Path_81" data-name="Path 81" d="M369.368,95.776h-5.66V65.463h5.66Z" fill="#414242"/>
          <path id="Path_82" data-name="Path 82" d="M382.113,65.494a1.445,1.445,0,0,1,.451.126,1.491,1.491,0,0,1,.388.272,4.475,4.475,0,0,1,.42.472l15.911,20.271q-.084-.733-.116-1.435t-.031-1.311V65.463H404.1V95.776H401.19a2.6,2.6,0,0,1-1.111-.21,2.46,2.46,0,0,1-.859-.755L383.372,74.623q.063.672.094,1.331t.031,1.206V95.776h-4.968V65.463h2.956A5.2,5.2,0,0,1,382.113,65.494Z" fill="#414242"/>
          <path id="Path_83" data-name="Path 83" d="M426.493,91.624a14.141,14.141,0,0,0,3.322-.345,13.949,13.949,0,0,0,2.694-.954V84.811h-3.794a1.185,1.185,0,0,1-.86-.3,1,1,0,0,1-.314-.744V80.577h10.083V92.841a16.623,16.623,0,0,1-2.4,1.457,15.3,15.3,0,0,1-2.662,1.016,20.4,20.4,0,0,1-3.029.6,28.664,28.664,0,0,1-3.48.2,15.8,15.8,0,0,1-6.1-1.153,14.313,14.313,0,0,1-8-8.113,16.582,16.582,0,0,1-1.143-6.226,17.117,17.117,0,0,1,1.111-6.268,13.807,13.807,0,0,1,8.113-8.092,17.934,17.934,0,0,1,6.541-1.132,17.05,17.05,0,0,1,6.425,1.1,14.774,14.774,0,0,1,4.6,2.862l-1.635,2.556a1.453,1.453,0,0,1-1.278.777,1.9,1.9,0,0,1-1.028-.336q-.67-.4-1.373-.8a9.269,9.269,0,0,0-1.551-.691,12.626,12.626,0,0,0-1.908-.483,14.032,14.032,0,0,0-2.442-.188,10.459,10.459,0,0,0-4.056.755,8.582,8.582,0,0,0-3.093,2.159,9.73,9.73,0,0,0-1.97,3.375,13.227,13.227,0,0,0-.692,4.4,13.733,13.733,0,0,0,.734,4.664,9.783,9.783,0,0,0,2.054,3.449,8.832,8.832,0,0,0,3.145,2.148A10.425,10.425,0,0,0,426.493,91.624Z" fill="#414242"/>
        </g>
      </g>
      <g id="Group_100" data-name="Group 100">
        <g id="Group_99" data-name="Group 99">
          <path id="Path_84" data-name="Path 84" d="M171.626,115.627h-1.59l-3.131-10.6h1.381l2.553,9.587,2.5-9.587H174.8l2.506,9.619,2.569-9.619h1.3l-3.115,10.6h-1.59l-1.878-6.873-.546-2.392h-.016l-.546,2.392Z" fill="#414242"/>
          <path id="Path_85" data-name="Path 85" d="M193.722,114.423v1.2h-7.676v-10.6h7.435v1.2h-6.15v3.42h4.785v1.205h-4.785v3.565Z" fill="#414242"/>
          <path id="Path_86" data-name="Path 86" d="M204.8,112.689H200l-1.124,2.938h-1.349l4.127-10.6h1.525l4.111,10.6h-1.365Zm-.466-1.205-1.429-3.758-.5-1.476h-.031l-.466,1.428-1.445,3.806Z" fill="#414242"/>
          <path id="Path_87" data-name="Path 87" d="M219.349,114.423v1.2h-7.354v-10.6h1.285v9.394Z" fill="#414242"/>
          <path id="Path_88" data-name="Path 88" d="M229.53,106.233h-3.694v9.394h-1.284v-9.394h-3.693v-1.2h8.671Z" fill="#414242"/>
          <path id="Path_89" data-name="Path 89" d="M242.648,105.029v10.6h-1.284v-4.769h-5.749v4.769h-1.284v-10.6h1.284v4.624h5.749v-4.624Z" fill="#414242"/>
          <path id="Path_90" data-name="Path 90" d="M263.026,105.9a3.316,3.316,0,0,1,0,4.705,3.733,3.733,0,0,1-2.586.875h-2.456v4.143H256.7v-10.6h3.741A3.738,3.738,0,0,1,263.026,105.9Zm-.956,3.87a2.258,2.258,0,0,0,0-3.035,2.745,2.745,0,0,0-1.822-.506h-2.264v4.047h2.264A2.745,2.745,0,0,0,262.07,109.774Z" fill="#414242"/>
          <path id="Path_91" data-name="Path 91" d="M274.234,112.689h-4.8l-1.124,2.938H266.96l4.127-10.6h1.525l4.111,10.6h-1.365Zm-.466-1.205-1.429-3.758-.5-1.476h-.032l-.465,1.428-1.445,3.806Z" fill="#414242"/>
          <path id="Path_92" data-name="Path 92" d="M285.25,111.227h-2.538v4.4h-1.285v-10.6h4.015a3.881,3.881,0,0,1,2.6.835,2.825,2.825,0,0,1,.979,2.264,2.912,2.912,0,0,1-.626,1.9,3.2,3.2,0,0,1-1.719,1.06l2.987,4.544H288.14Zm-2.538-1.2h2.714q2.248,0,2.248-1.9t-2.248-1.895h-2.714Z" fill="#414242"/>
          <path id="Path_93" data-name="Path 93" d="M301.789,106.233H298.1v9.394h-1.285v-9.394h-3.693v-1.2h8.671Z" fill="#414242"/>
          <path id="Path_94" data-name="Path 94" d="M314.908,115.627h-1.59l-4.431-7.1-1.124-2.089h-.017l.065,1.7v7.483H306.59v-10.6h1.59l4.416,7.065,1.14,2.12h.016l-.064-1.7v-7.483h1.22Z" fill="#414242"/>
          <path id="Path_95" data-name="Path 95" d="M328.606,114.423v1.2H320.93v-10.6h7.434v1.2h-6.149v3.42H327v1.205h-4.785v3.565Z" fill="#414242"/>
          <path id="Path_96" data-name="Path 96" d="M337.549,111.227h-2.537v4.4h-1.285v-10.6h4.015a3.876,3.876,0,0,1,2.6.835,2.822,2.822,0,0,1,.98,2.264,2.912,2.912,0,0,1-.626,1.9,3.2,3.2,0,0,1-1.719,1.06l2.987,4.544H340.44Zm-2.537-1.2h2.714q2.248,0,2.248-1.9t-2.248-1.895h-2.714Z" fill="#414242"/>
          <path id="Path_97" data-name="Path 97" d="M354.458,107.117l-1.108.9a3.449,3.449,0,0,0-1.148-1.5,3.262,3.262,0,0,0-1.823-.442,3.22,3.22,0,0,0-1.919.505,1.537,1.537,0,0,0-.7,1.293,1.306,1.306,0,0,0,.273.851,2.17,2.17,0,0,0,.907.587,9.452,9.452,0,0,0,1.758.441,6.636,6.636,0,0,1,2.979,1.06,2.376,2.376,0,0,1,.875,1.958,2.586,2.586,0,0,1-.5,1.583,3.268,3.268,0,0,1-1.437,1.059,5.714,5.714,0,0,1-2.152.377,5.6,5.6,0,0,1-2.738-.625A4.363,4.363,0,0,1,346,113.491l1.108-.9a3.29,3.29,0,0,0,1.276,1.469,3.946,3.946,0,0,0,2.112.522,3.755,3.755,0,0,0,1.991-.458,1.441,1.441,0,0,0,.739-1.292,1.287,1.287,0,0,0-.643-1.125A6.646,6.646,0,0,0,350.3,111a6.986,6.986,0,0,1-3-1.06,2.306,2.306,0,0,1-.883-1.927,2.787,2.787,0,0,1,.482-1.574,3.308,3.308,0,0,1,1.381-1.147,4.822,4.822,0,0,1,2.087-.426A4.327,4.327,0,0,1,354.458,107.117Z" fill="#414242"/>
        </g>
      </g>
    </g>
    <path id="Path_98" data-name="Path 98" d="M136.624,56.121v4.073h-2.036a30.362,30.362,0,0,0-4.037.262,19.168,19.168,0,0,0-5.944,1.717c-5.609,2.758-8.37,8.423-8.37,17.127l-.01,17.822h-.009l0,4.553c0,8.4-2.515,14.675-7.283,18.564a18.646,18.646,0,0,1-5.063,2.908,27.722,27.722,0,0,1-10.078,1.7H91.755v-4.073h2.036a30.362,30.362,0,0,0,4.037-.262,19.147,19.147,0,0,0,5.945-1.716c5.608-2.759,8.37-8.424,8.37-17.128l.009-17.822h.01l0-4.553c0-8.4,2.515-14.675,7.283-18.564a18.652,18.652,0,0,1,5.064-2.908,27.716,27.716,0,0,1,10.077-1.705Zm0,9.188-.1-.083a41.631,41.631,0,0,0-6.335.311c-8.985,1.8-8.907,9.153-8.907,17.413v18.672c0,8.361-1.908,14.528-5.5,19.15a19.652,19.652,0,0,1-4.284,4.062c-4.508,3.148-10.479,5.008-18.215,5.008H91.72v4.072h1.561c10.93,0,19.039-3.337,24.432-9.225a24.692,24.692,0,0,0,3.4-4.751c2.721-4.927,4.245-10.845,4.245-18.316V82.95c0-10.577.925-13.652,9.231-13.652h.356a29.067,29.067,0,0,1,9.4,21.382,30.529,30.529,0,0,1-18.827,28.137,30.817,30.817,0,0,1-1.425,3c-.431.78-.9,1.528-1.4,2.256a34.627,34.627,0,0,0,25.723-33.39A33.243,33.243,0,0,0,136.624,65.309Zm-44.831,50.3c.032.029.066.055.1.083a41.631,41.631,0,0,0,6.335-.311c8.985-1.8,8.907-9.153,8.907-17.413V79.292c0-8.361,1.908-14.528,5.5-19.15a19.652,19.652,0,0,1,4.284-4.062c4.508-3.148,10.479-5.007,18.215-5.007H136.7V47h-1.561c-10.93,0-19.039,3.337-24.432,9.225a24.692,24.692,0,0,0-3.4,4.751c-2.721,4.927-4.245,10.846-4.245,18.316V97.964c0,10.577-.925,13.652-9.231,13.652h-.356a29.066,29.066,0,0,1-9.4-21.382A30.526,30.526,0,0,1,102.9,62.1a30.827,30.827,0,0,1,1.425-3c.431-.781.9-1.529,1.4-2.257A34.628,34.628,0,0,0,80,90.234,33.244,33.244,0,0,0,91.793,115.605Z" fill="#07c"/>
  </g>
</svg>
