<svg xmlns="http://www.w3.org/2000/svg" width="200" height="200" viewBox="0 0 200 200">
  <g id="Group_115" data-name="Group 115" transform="translate(-277.052 -1821.75)">
    <circle id="Ellipse_7" data-name="Ellipse 7" cx="96" cy="96" r="96" transform="translate(281.052 1825.75)" fill="none" stroke="#dee8ed" stroke-miterlimit="10" stroke-width="8"/>
    <g id="Group_75" data-name="Group 75">
      <g id="Group_62" data-name="Group 62">
        <path id="Path_58" data-name="Path 58" d="M378.975,1914.448l-4.556-.107c.009-.272,1-27.044,30.5-29.789l.418,4.538C379.824,1891.461,379,1913.513,378.975,1914.448Z" fill="#07c"/>
      </g>
      <g id="Group_63" data-name="Group 63">
        <path id="Path_59" data-name="Path 59" d="M395.911,1905.55a29.558,29.558,0,0,1-7.171-.934l1.1-4.422c5.939,1.495,11.126.876,15.415-1.815,6.361-3.991,9.355-11.6,10.454-15.157-10.783-3.6-18.991-3.6-23.827.031-5.863,4.409-5.356,12.994-5.347,13.079l-4.547.325c-.031-.449-.716-11.095,7.122-17.017,6.5-4.919,16.638-4.924,30.127-.008l1.846.671-.391,1.927c-.116.556-2.9,13.644-12.991,19.992A21.723,21.723,0,0,1,395.911,1905.55Z" fill="#07c"/>
      </g>
      <g id="Group_64" data-name="Group 64">
        <path id="Path_60" data-name="Path 60" d="M379.557,1910.2H375c0-1.125-.351-27.635-25.741-30l.419-4.538C379.237,1878.417,379.557,1909.888,379.557,1910.2Z" fill="#07c"/>
      </g>
      <g id="Group_65" data-name="Group 65">
        <path id="Path_61" data-name="Path 61" d="M358.693,1896.666a21.735,21.735,0,0,1-12.1-3.519c-9.841-6.42-12.577-19.259-12.693-19.8l-.382-1.873,1.78-.7c13.341-5.268,23.413-5.459,29.944-.556,8.488,6.379,7.429,18.738,7.38,19.258l-4.537-.422c.009-.1.858-10.379-5.6-15.206-4.9-3.666-12.839-3.506-23.618.441,1.067,3.483,4,11.01,10.232,15.058,4.106,2.674,9.057,3.4,14.716,2.189l.961,4.449A28.631,28.631,0,0,1,358.693,1896.666Z" fill="#07c"/>
      </g>
      <g id="Group_66" data-name="Group 66">
        <path id="Path_62" data-name="Path 62" d="M404.226,1933.835H349.173a2.279,2.279,0,0,1-2.238-1.855l-1.65-8.7a2.276,2.276,0,0,1,2.237-2.7H405.9a2.277,2.277,0,0,1,2.237,2.709l-1.673,8.7A2.278,2.278,0,0,1,404.226,1933.835Zm-53.167-4.556h51.285l.8-4.146H350.271Z" fill="#07c"/>
      </g>
      <g id="Group_67" data-name="Group 67">
        <path id="Path_63" data-name="Path 63" d="M395.773,1976H357.625a2.279,2.279,0,0,1-2.26-2.007l-5.058-42.164a2.275,2.275,0,0,1,2.26-2.55h48.26a2.275,2.275,0,0,1,2.26,2.55l-5.054,42.164A2.275,2.275,0,0,1,395.773,1976Zm-36.128-4.555h34.108l4.507-37.61H355.134Z" fill="#07c"/>
      </g>
      <g id="Group_68" data-name="Group 68">
        <path id="Path_64" data-name="Path 64" d="M357.821,1923.292a.689.689,0,0,0,.173-.436h-4.555c0-3.319,3.315-4.209,5.979-4.925,2.167-.578,4.622-1.237,5.774-2.834,2.616-3.6,6.491-4.342,11.505-4.342a18.669,18.669,0,0,1,11.615,4.008,16.116,16.116,0,0,0,5.935,2.745c2.545.752,5.708,1.691,5.708,5.348H395.4a7.362,7.362,0,0,0-2.446-.979,20.435,20.435,0,0,1-7.51-3.577,14.065,14.065,0,0,0-8.746-2.99c-4.453,0-6.5.645-7.816,2.46-2.1,2.905-5.526,3.822-8.28,4.56A11.381,11.381,0,0,0,357.821,1923.292Z" fill="#07c"/>
      </g>
      <g id="Group_69" data-name="Group 69">
        <rect id="Rectangle_43" data-name="Rectangle 43" width="79.352" height="4.555" transform="translate(337.023 1971.444)" fill="#07c"/>
      </g>
      <g id="Group_74" data-name="Group 74">
        <g id="Group_70" data-name="Group 70">
          <path id="Path_65" data-name="Path 65" d="M376.7,1964.02c-4.253,0-7.714-3.066-7.714-6.829h4.555c0,1.232,1.446,2.273,3.159,2.273s3.163-1.041,3.163-2.273c0-1.424-1.183-2.274-3.163-2.274-5.329,0-7.714-3.43-7.714-6.828,0-3.764,3.461-6.825,7.714-6.825s7.718,3.061,7.718,6.825H379.86c0-1.228-1.45-2.269-3.163-2.269s-3.159,1.041-3.159,2.269c0,1.877,1.718,2.273,3.159,2.273,4.546,0,7.718,2.807,7.718,6.829C384.415,1960.954,380.954,1964.02,376.7,1964.02Z" fill="#07c"/>
        </g>
        <g id="Group_73" data-name="Group 73">
          <g id="Group_71" data-name="Group 71">
            <rect id="Rectangle_44" data-name="Rectangle 44" width="4.555" height="3.67" transform="translate(374.419 1938.159)" fill="#07c"/>
          </g>
          <g id="Group_72" data-name="Group 72">
            <rect id="Rectangle_45" data-name="Rectangle 45" width="4.555" height="3.67" transform="translate(374.419 1963.45)" fill="#07c"/>
          </g>
        </g>
      </g>
    </g>
  </g>
</svg>
